<?xml version="1.0" encoding="UTF-8"?>
<svg id="Layer_1" data-name="Layer 1" xmlns="http://www.w3.org/2000/svg" viewBox="0 0 88 81">
  <defs>
    <style>
      .cls-1 {
        fill: #2f68d3;
      }

      .cls-2 {
        fill: #231f20;
        fill-rule: evenodd;
      }
    </style>
  </defs>
  <g id="Group_2978" data-name="Group 2978">
    <g id="Group_2845" data-name="Group 2845">
      <g>
        <g id="Group_2842" data-name="Group 2842">
          <g id="Group_2841" data-name="Group 2841">
            <path id="Path_20534" data-name="Path 20534" d="m25.66,51.04h3v10.92h6.81v2.73h-9.81v-13.65Z"/>
            <path id="Path_20535" data-name="Path 20535" d="m36.8,50.45h3.12v2.63h-3.12v-2.63Zm.08,3.78h2.96v10.45h-2.96v-10.45Z"/>
            <path id="Path_20536" data-name="Path 20536" d="m41.11,54.23h3.14l2.34,7.01,2.36-7.01h3.08l-4.12,10.53h-2.69l-4.12-10.53Z"/>
            <path id="Path_20537" data-name="Path 20537" d="m52.08,59.52v-.04c-.13-2.87,2.09-5.31,4.96-5.44h0c.07,0,.14,0,.21,0,3.49,0,5.09,2.71,5.09,5.68,0,.23-.02.51-.04.78h-7.27c.19,1.24,1.3,2.13,2.56,2.05.96.01,1.88-.38,2.54-1.07l1.7,1.5c-1.98,2.33-5.46,2.61-7.79.63-1.2-1.02-1.91-2.51-1.95-4.09h0Zm7.37-.88c-.01-1.22-.99-2.2-2.2-2.22-1.22.04-2.21,1-2.26,2.22h4.47Z"/>
          </g>
        </g>
        <g id="Group_2843" data-name="Group 2843">
          <rect id="Rectangle_700" data-name="Rectangle 700" class="cls-1" x="38.86" y="9.76" width="23.47" height="8.74"/>
          <path id="Path_20538" data-name="Path 20538" class="cls-2" d="m25.66,9.76h9.02v27.93h27.65v8.74H25.67V9.76Z"/>
        </g>
        <g id="Group_2844" data-name="Group 2844">
          <path id="Path_20539" data-name="Path 20539" class="cls-1" d="m25.66,69.02h0c-.02-1.23.94-2.23,2.16-2.25h.1c.64-.03,1.26.21,1.71.67l-.61.7c-.29-.3-.69-.48-1.11-.49-.71.01-1.27.6-1.26,1.31h0s0,.03,0,.04h0c-.04.72.5,1.33,1.21,1.37.02,0,.03,0,.05,0,.43,0,.84-.19,1.14-.51l.61.61c-.44.52-1.1.8-1.77.77-1.21.02-2.2-.94-2.22-2.15h0s0-.05,0-.08Z"/>
          <path id="Path_20540" data-name="Path 20540" class="cls-1" d="m29.91,69.53h0c.04-1,.87-1.78,1.86-1.74.93.03,1.69.78,1.73,1.71h0c-.04,1-.87,1.78-1.86,1.74-.93-.03-1.69-.78-1.73-1.71Zm2.66,0h0c.02-.5-.36-.91-.84-.93h-.03c-.47,0-.85.37-.86.84h0s0,.04,0,.07h0c-.02.5.36.91.84.93h.03c.47,0,.85-.37.86-.84h0s0-.04,0-.07h0Z"/>
          <path id="Path_20541" data-name="Path 20541" class="cls-1" d="m33.99,67.85h.94v.47c.21-.33.58-.53.97-.53.71,0,1.13.47,1.13,1.23v2.14h-.94v-1.85c0-.44-.21-.67-.57-.67s-.59.23-.59.67v1.85h-.94v-3.31Z"/>
          <path id="Path_20542" data-name="Path 20542" class="cls-1" d="m37.65,67.85h.94v.47c.21-.33.58-.53.97-.53.71,0,1.13.47,1.13,1.23v2.14h-.94v-1.85c0-.44-.21-.67-.57-.67s-.59.23-.59.67v1.85h-.94v-3.31Z"/>
          <path id="Path_20543" data-name="Path 20543" class="cls-1" d="m41.16,69.53h0c-.04-.92.66-1.69,1.57-1.73.02,0,.04,0,.07,0,1.11,0,1.61.86,1.61,1.8,0,.07,0,.16-.01.25h-2.3c.06.39.41.67.81.65.3,0,.59-.12.8-.34l.54.48c-.63.74-1.73.83-2.47.2-.38-.32-.61-.79-.62-1.29h0Zm2.34-.28c0-.39-.31-.7-.7-.7-.39.01-.7.32-.72.7h1.42Z"/>
          <path id="Path_20544" data-name="Path 20544" class="cls-1" d="m44.76,69.53h0c-.01-.95.74-1.72,1.68-1.74h.06c.5-.03.99.18,1.32.56l-.58.62c-.18-.23-.46-.36-.75-.36-.47.02-.83.42-.8.89,0,0,0,0,0,0v.02h0c-.04.48.31.89.78.92.02,0,.04,0,.06,0,.29,0,.57-.13.76-.35l.55.56c-.33.4-.83.63-1.35.61-.93.02-1.71-.72-1.72-1.66h0s0-.04,0-.05Z"/>
          <path id="Path_20545" data-name="Path 20545" class="cls-1" d="m48.42,70.23v-1.57h-.4v-.8h.4v-.85h.94v.85h.78v.8h-.78v1.41c0,.22.09.32.3.32.16,0,.32-.04.46-.12v.75c-.22.13-.48.2-.74.19-.57,0-.96-.23-.96-.99Z"/>
          <path id="Path_20546" data-name="Path 20546" class="cls-1" d="m50.66,66.66h.99v.83h-.99v-.83Zm.02,1.2h.94v3.31h-.94v-3.31Z"/>
          <path id="Path_20547" data-name="Path 20547" class="cls-1" d="m52.16,69.53h0c.04-1,.87-1.78,1.86-1.74.93.03,1.69.78,1.73,1.71h0c-.04,1-.87,1.78-1.86,1.74-.93-.03-1.69-.78-1.73-1.71Zm2.66,0h0c.02-.5-.36-.91-.85-.93h-.03c-.47,0-.85.37-.86.84,0,.02,0,.04,0,.07h0c-.02.5.36.91.84.93h.03c.47,0,.85-.37.86-.84,0-.02,0-.04,0-.06h0Z"/>
          <path id="Path_20548" data-name="Path 20548" class="cls-1" d="m56.24,67.85h.94v.47c.21-.33.58-.53.97-.53.71,0,1.13.47,1.13,1.23v2.14h-.94v-1.85c0-.44-.21-.67-.57-.67s-.59.23-.59.67v1.85h-.94v-3.31Z"/>
          <path id="Path_20549" data-name="Path 20549" class="cls-1" d="m59.65,70.73l.4-.62c.3.23.66.37,1.04.4.27,0,.4-.1.4-.25h0c0-.22-.32-.28-.69-.4-.46-.14-.99-.35-.99-1h0c0-.69.54-1.06,1.21-1.06.44,0,.87.14,1.24.38l-.36.65c-.27-.17-.58-.28-.9-.31-.23,0-.35.1-.35.23h0c0,.2.32.28.67.41.46.15,1,.38,1,.98h0c0,.75-.55,1.08-1.27,1.08-.52,0-1.01-.18-1.42-.5Z"/>
        </g>
      </g>
    </g>
  </g>
</svg>